<?xml version="1.0" encoding="utf-8"?>
<!-- Generator: Adobe Illustrator 27.2.0, SVG Export Plug-In . SVG Version: 6.00 Build 0)  -->
<svg version="1.1" id="Layer_1" xmlns="http://www.w3.org/2000/svg" xmlns:xlink="http://www.w3.org/1999/xlink" x="0px" y="0px"
	 viewBox="0 0 560 274" style="enable-background:new 0 0 560 274;" xml:space="preserve">
<style type="text/css">
	.st0{fill:#1A396E;}
</style>
<path class="st0" d="M312.7,130.1L278.1,27.3l-0.2-0.7L275,37.4l-2.9,10.7L249,0l-11.6,25l-11.6,25l-6.7-5.1l-13.5-10.1l-27.5,102.1
	c0,0-4.9,22.7-5.1,33.4c0,57.4,32.7,103.9,73,103.9s73-46.5,73-103.9C318.7,154.8,312.7,130.1,312.7,130.1z M231.3,77.8
	c5.8-3.3,11.9-4.9,17.6-4.9c8.2,0,15.5,3.3,19.2,9.7c6.2,10.8-0.1,26.1-14.2,34.2c-5.8,3.3-11.9,4.9-17.6,4.9
	c-8.2,0-15.5-3.3-19.2-9.7C210.9,101.2,217.2,85.9,231.3,77.8z M264.5,229.3l-8.9-14.7l-9.7,24.2c-0.4,0-0.9,0-1.3,0
	c-0.4,0-0.7,0-1,0l-9.7-24.2l-9,15c-8.7-11.1-13.9-33.9-14.6-77c0.2-10.8,0.6-20.2,1.4-28.6l14.3,38.1l5.4-30
	c6.1,0.6,12.7-0.2,19.3-2.3l6,33.8l18.9-50.3c0.3-0.4,0.6-0.7,0.9-1.1c1.5,10.9,2.4,24.2,2.6,40.3
	C278.2,195.3,273.1,218.1,264.5,229.3z"/>
<path class="st0" d="M358,262l-5.8-135.5l0.2-14.1L401.2,262h36.4L441,50h-44l6.1,95.6l0.2,12.1l0,0.1L368.1,50h-50.7L314,262"/>
<path class="st0" d="M163.9,50h-51L93,161.2L73,50H54.3H22.1L0,262h44.2l6.2-136.3v0L74.9,262h36.2l24.5-136.3v0l6.2,136.3H186
	L163.9,50z"/>
<path class="st0" d="M542.5,156.2c-13.6-9.6-37.5-19-44.6-30.6c-1.1-1.6-1.8-3.4-2-5.4c0-0.4-0.1-30-0.1-30c0-1.4,0.4-2.8,1.1-3.9
	c0.9-1.8,2.6-3.5,5.6-3.6c0.2,0,0.6,0,0.8,0c0.5,0,1.2,0.1,1.7,0.2c4.2,1,4,6.2,4,6.2v27.5l48.7-13.3c0,0,1.4-34.1-20.5-47.9
	c-21.8-13.8-54.9-6.2-54.9-6.2S445,57.2,445,90.3c0,23.9,0,40.6,0.1,41.2c0.5,4.7,3.5,16.1,18.7,26.6c11.5,7.3,19,11.2,25,14.7
	l-41.6,11.4c0,0-5.9,48.2,12.6,68.2c17.2,18.5,62.8,11.4,62.8,11.4s37.4-8.1,37.4-41.2c0-33,0-39.9,0-39.9S558.7,167.5,542.5,156.2z
	 M509.2,222.9c0,4.2-3.4,7.5-7.5,7.5c-1.5,0-2.8-0.6-3.9-1.5c-2-1.6-1.9-5.2-1.9-5.2v-46.6l8.6,7.5c0.1,0.1,0.1,0.1,0.2,0.2
	c1.7,1.7,3.3,3.8,4,5.9c0.4,1.2,0.4,2,0.4,2s0.1,1,0.1,1.4V222.9L509.2,222.9z"/>
<path class="st0" d="M250.1,92.7c-3.3,1.8-7.1,1.3-8.6-1.1c-1.2-2-0.3-4.8,2-6.7c-2.3,0.3-4.6,1-6.9,2.3c-7.3,4-10.6,11.6-7.4,16.9
	c3.2,5.3,11.8,6.4,19.1,2.4c7.3-4,10.6-11.6,7.4-16.9c-0.5-0.8-1.1-1.5-1.8-2.1C253.8,89.5,252.4,91.5,250.1,92.7z"/>
</svg>
